<svg height="1152" viewBox="0 0 864 864" width="1152" xmlns="http://www.w3.org/2000/svg" xmlns:xlink="http://www.w3.org/1999/xlink"><symbol id="a" overflow="visible"><path d="m12.172-8.188c0-5.906-1.875-8.828-5.578-8.828-3.672 0-5.563 2.97-5.563 8.688 0 5.734 1.922 8.687 5.563 8.687 3.61 0 5.578-2.953 5.578-8.546zm-2.156-.187c0 4.828-1.11 6.984-3.47 6.984-2.234 0-3.359-2.25-3.359-6.906s1.126-6.844 3.407-6.844 3.422 2.204 3.422 6.766zm0 0"/></symbol><symbol id="b" overflow="visible"><path d="m12.266-12.031c0-2.875-2.235-4.985-5.454-4.985-3.468 0-5.5 1.782-5.609 5.907h2.11c.171-2.86 1.343-4.063 3.437-4.063 1.906 0 3.36 1.375 3.36 3.203 0 1.344-.797 2.485-2.313 3.36l-2.203 1.234c-3.547 2.016-4.578 3.625-4.782 7.375h11.329v-2.094h-8.954c.22-1.39.985-2.281 3.079-3.5l2.39-1.297c2.39-1.265 3.61-3.046 3.61-5.14zm0 0"/></symbol><symbol id="c" overflow="visible"><path d="m12.484-4.078v-1.89h-2.53v-11.048h-1.549l-7.733 10.703v2.235h7.172v4.078h2.11v-4.078zm-4.64-1.89h-5.328l5.328-7.454zm0 0"/></symbol><symbol id="d" overflow="visible"><path d="m12.313-4.797c0-1.906-.954-3.219-2.922-4.156 1.75-1.063 2.328-1.922 2.328-3.531 0-2.657-2.094-4.532-5.125-4.532-3 0-5.11 1.875-5.11 4.532 0 1.593.579 2.453 2.313 3.53-1.953.939-2.907 2.251-2.907 4.127 0 3.124 2.344 5.186 5.704 5.186s5.718-2.062 5.718-5.156zm-2.766-7.64c0 1.593-1.172 2.64-2.953 2.64-1.766 0-2.953-1.047-2.953-2.656 0-1.64 1.187-2.688 2.953-2.688 1.812 0 2.953 1.047 2.953 2.704zm.61 7.656c0 2.015-1.438 3.265-3.61 3.265-2.063 0-3.5-1.265-3.5-3.265 0-1.985 1.437-3.235 3.547-3.235 2.125 0 3.562 1.25 3.562 3.235zm0 0"/></symbol><symbol id="e" overflow="visible"><path d="m12.484-14.875v-1.781h-11.374v2.093h9.188a36.21 36.21 0 0 0 -6.986 14.563h2.25a31.26 31.26 0 0 1 6.922-14.875zm0 0"/></symbol><symbol id="f" overflow="visible"><path d="m8.328 0v-17.016h-1.39c-.75 2.61-1.22 2.97-4.485 3.391v1.5h3.767v12.125zm0 0"/></symbol><symbol id="g" overflow="visible"><path d="m12.313-5.281c0-3.172-2.157-5.297-5.204-5.297-1.687 0-3 .64-3.921 1.89.03-4.156 1.374-6.453 3.796-6.453 1.485 0 2.516.938 2.86 2.563h2.11c-.407-2.781-2.235-4.438-4.829-4.438-3.953 0-6.094 3.328-6.094 9.266 0 5.297 1.829 8.11 5.719 8.11 3.234 0 5.563-2.297 5.563-5.641zm-2.157.172c0 2.14-1.437 3.593-3.39 3.593-1.97 0-3.454-1.53-3.454-3.718 0-2.11 1.438-3.485 3.532-3.485 2.031 0 3.312 1.328 3.312 3.61zm0 0"/></symbol><symbol id="h" overflow="visible"><path d="m12.313-5.64c0-3.36-2.235-5.563-5.5-5.563-1.204 0-2.157.312-3.141 1.031l.672-4.39h7.078v-2.094h-8.782l-1.265 8.906h1.938c.984-1.172 1.796-1.594 3.124-1.594 2.282 0 3.72 1.469 3.72 3.985 0 2.453-1.423 3.843-3.72 3.843-1.859 0-2.984-.937-3.484-2.859h-2.11c.689 3.39 2.611 4.734 5.642 4.734 3.422 0 5.829-2.406 5.829-6zm0 0"/></symbol><symbol id="i" overflow="visible"><path d="m12.219-8.906c0-5.328-1.844-8.11-5.735-8.11-3.25 0-5.578 2.297-5.578 5.641 0 3.172 2.172 5.297 5.235 5.297 1.609 0 2.78-.563 3.89-1.89-.015 4.155-1.375 6.452-3.797 6.452-1.484 0-2.515-.937-2.843-2.562h-2.125c.421 2.781 2.234 4.437 4.828 4.437 3.984 0 6.125-3.39 6.125-9.265zm-2.313-2.516c0 2.078-1.453 3.485-3.515 3.485-2.047 0-3.313-1.329-3.313-3.61 0-2.156 1.438-3.625 3.375-3.625 1.969 0 3.453 1.547 3.453 3.75zm0 0"/></symbol><symbol id="j" overflow="visible"><path d="m14.844 0v-21.875h-2.485v8.14c-1.046-1.593-2.734-2.437-4.828-2.437-4.078 0-6.75 3.156-6.75 8.156 0 5.313 2.61 8.47 6.844 8.47 2.156 0 3.656-.813 5-2.767v2.313zm-2.485-7.797c0 3.625-1.734 5.906-4.375 5.906-2.765 0-4.593-2.312-4.593-5.968 0-3.657 1.828-5.97 4.562-5.97 2.703 0 4.406 2.392 4.406 6.032zm0 0"/></symbol><symbol id="k" overflow="visible"><path d="m16.047-.063v-1.89c-.266.062-.39.062-.531.062-.875 0-1.36-.453-1.36-1.234v-8.75c0-2.797-2.031-4.297-5.906-4.297-3.813 0-6.156 1.469-6.297 5.11h2.517c.218-1.922 1.343-2.797 3.687-2.797 2.25 0 3.516.843 3.516 2.343v.657c0 1.046-.625 1.5-2.61 1.734-3.546.453-4.078.578-5.046.969-1.829.75-2.75 2.156-2.75 4.078 0 2.844 1.968 4.531 5.156 4.531a7.38 7.38 0 0 0 5.344-2.312 2.642 2.642 0 0 0 2.577 2.062c.5 0 .89-.047 1.703-.266zm-4.375-5.375c0 2.25-2.281 3.704-4.719 3.704-1.937 0-3.078-.704-3.078-2.407 0-1.656 1.11-2.375 3.781-2.765 2.64-.36 3.172-.469 4.016-.86zm0 0"/></symbol><symbol id="l" overflow="visible"><path d="m7.625 0v-2.094c-.328.078-.719.11-1.203.11-1.078 0-1.375-.297-1.375-1.407v-10.296h2.578v-2.032h-2.578v-4.328h-2.5v4.328h-2.125v2.031h2.125v11.408c0 1.593 1.078 2.483 3.031 2.483.61 0 1.203-.047 2.047-.203zm0 0"/></symbol><symbol id="m" overflow="visible"><path d="m15.39-7.14c0-2.282-.187-3.72-.624-4.891-1.032-2.578-3.422-4.14-6.36-4.14-4.39 0-7.203 3.233-7.203 8.405 0 5.157 2.734 8.22 7.14 8.22 3.595 0 6.095-2.048 6.72-5.22h-2.516c-.703 2.063-2.11 2.907-4.11 2.907-2.624 0-4.562-1.688-4.624-5.282zm-2.67-2.22s0 .126-.031.172h-8.815c.203-2.78 1.969-4.671 4.5-4.671 2.453 0 4.344 2.046 4.344 4.5zm0 0"/></symbol><symbol id="n" overflow="visible"><path d="m15.688-7.703c0-5.281-2.579-8.469-6.75-8.469-2.126 0-3.844.969-5 2.828v-2.375h-2.283v22.266h2.485v-8.438c1.313 1.625 2.797 2.344 4.829 2.344 4.047 0 6.719-3.156 6.719-8.156zm-2.61-.063c0 3.563-1.828 5.875-4.562 5.875-2.641 0-4.375-2.156-4.375-5.843 0-3.704 1.734-6.094 4.375-6.094 2.765 0 4.562 2.312 4.562 6.062zm0 0"/></symbol><symbol id="o" overflow="visible"><path d="m9.625-13.531v-2.547c-.422-.063-.625-.094-.953-.094-1.625 0-2.86.969-4.297 3.297v-2.844h-2.281v15.719h2.5v-8.156c0-3.547 1.172-5.313 5.031-5.375zm0 0"/></symbol><symbol id="p" overflow="visible"><path d="m14.313-5.406h-2.516c-.422 2.531-1.719 3.547-3.844 3.547-2.766 0-4.406-2.125-4.406-5.844 0-3.938 1.61-6.156 4.344-6.156 2.093 0 3.421 1.234 3.718 3.421h2.516c-.297-3.843-2.688-5.734-6.203-5.734-4.234 0-6.984 3.235-6.984 8.469 0 5.062 2.686 8.156 6.952 8.156 3.75 0 6.125-2.25 6.421-5.86zm0 0"/></symbol><symbol id="q" overflow="visible"><path d="m14.61 0v-11.875c0-2.61-1.954-4.297-4.985-4.297-2.328 0-3.828.906-5.219 3.094v-2.64h-2.312v15.718h2.5v-8.672c0-3.203 1.734-5.312 4.281-5.312 1.984 0 3.25 1.203 3.25 3.093v10.891zm0 0"/></symbol><symbol id="r" overflow="visible"><path d="m4.594 0v-15.719h-2.5v15.719zm.328-18.094v-3.11h-3.125v3.11zm0 0"/></symbol><symbol id="s" overflow="visible"><path d="m4.531 0v-21.875h-2.484v21.875zm0 0"/></symbol><symbol id="t" overflow="visible"><path d="m0-22.797h-11.797c-2.812 0-4.375 1.563-4.375 4.5 0 2.094.625 3.36 2.406 4.828-1.687.922-2.406 2.188-2.406 4.235 0 2.093.781 3.468 2.672 4.828h-2.219v2.281h15.719v-2.5h-9.875c-2.281 0-4.11-1.64-4.11-3.688 0-1.859 1.141-2.906 3.157-2.906h10.828v-2.484h-9.875c-2.281 0-4.11-1.688-4.11-3.735 0-1.828 1.172-2.875 3.157-2.875h10.828zm0 0"/></symbol><symbol id="u" overflow="visible"><path d="m-7.734-15.297c-5.438 0-8.438 2.61-8.438 7.14 0 4.407 3.031 7.079 8.313 7.079 5.28 0 8.312-2.64 8.312-7.11 0-4.406-3.031-7.109-8.187-7.109zm-.032 2.61c3.688 0 5.907 1.734 5.907 4.5 0 2.78-2.188 4.5-6 4.5-3.782 0-6-1.72-6-4.5 0-2.829 2.187-4.5 6.093-4.5zm0 0"/></symbol><symbol id="v" overflow="visible"><path d="m0-14.61h-11.875c-2.61 0-4.297 1.954-4.297 4.985 0 2.328.906 3.828 3.094 5.219h-2.64v2.312h15.718v-2.5h-8.672c-3.203 0-5.312-1.734-5.312-4.281 0-1.984 1.203-3.25 3.093-3.25h10.891zm0 0"/></symbol><symbol id="w" overflow="visible"><path d="m0-7.625h-2.094c.078.328.11.719.11 1.203 0 1.078-.297 1.375-1.407 1.375h-10.296v-2.578h-2.032v2.578h-4.328v2.5h4.328v2.125h2.031v-2.125h11.408c1.594 0 2.484-1.078 2.484-3.031 0-.61-.047-1.203-.203-2.047zm0 0"/></symbol><symbol id="x" overflow="visible"><path d="m0-14.578h-11.875c-2.64 0-4.297 1.89-4.297 4.953 0 2.219.688 3.563 2.61 5.031h-8.313v2.5h21.875v-2.5h-8.672c-3.203 0-5.312-1.672-5.312-4.25 0-1.781 1.03-3.25 3.093-3.25h10.891zm0 0"/></symbol><symbol id="y" overflow="visible"><path d="m-4.406-13.766c-2.344 0-3.516 1.313-4.266 4.438l-.562 2.39c-.485 2.047-1.141 2.922-2.25 2.922-1.454 0-2.375-1.296-2.375-3.328 0-2.015.875-3.093 2.515-3.156v-2.64c-3.094.03-4.828 2.078-4.828 5.703 0 3.656 1.89 6.03 4.797 6.03 2.469 0 3.64-1.265 4.531-4.984l.578-2.343c.422-1.735.922-2.422 2.063-2.422 1.469 0 2.344 1.469 2.344 3.656 0 2.25-.547 3.516-2.938 3.844v2.64c3.625-.125 5.25-2.171 5.25-6.28 0-3.954-1.828-6.47-4.86-6.47zm0 0"/></symbol><symbol id="z" overflow="visible"><path d="m0-14.453h-15.719v2.484h8.672c3.203 0 5.313 1.672 5.313 4.281 0 1.985-1.204 3.25-3.094 3.25h-10.89v2.485h11.874c2.61 0 4.297-1.953 4.297-5 0-2.313-.812-3.781-2.89-5.25h2.437zm0 0"/></symbol><symbol id="A" overflow="visible"><path d="m-13.688-7.734h-2.03v2.609h-2.47c-1.046 0-1.578-.61-1.578-1.75 0-.203 0-.297.032-.86h-2.078c-.125.563-.141.891-.141 1.407 0 2.312 1.312 3.687 3.562 3.687h2.672v2.094h2.031v-2.093h13.688v-2.484h-13.688zm0 0"/></symbol><symbol id="B" overflow="visible"><path d="m0-14.844h-21.875v2.485h8.14c-1.593 1.046-2.437 2.734-2.437 4.828 0 4.078 3.156 6.75 8.156 6.75 5.313 0 8.47-2.61 8.47-6.844 0-2.156-.813-3.656-2.767-5h2.313zm-7.797 2.485c3.625 0 5.906 1.734 5.906 4.375 0 2.765-2.312 4.593-5.968 4.593-3.657 0-5.97-1.828-5.97-4.562 0-2.703 2.392-4.406 6.032-4.406zm0 0"/></symbol><symbol id="C" overflow="visible"><path d="m-.063-16.047h-1.89c.062.266.062.39.062.531 0 .875-.453 1.36-1.234 1.36h-8.75c-2.797 0-4.297 2.031-4.297 5.906 0 3.813 1.469 6.156 5.11 6.297v-2.517c-1.922-.218-2.797-1.343-2.797-3.687 0-2.25.843-3.516 2.343-3.516h.657c1.046 0 1.5.625 1.734 2.61.453 3.546.578 4.078.969 5.046.75 1.829 2.156 2.75 4.078 2.75 2.844 0 4.531-1.968 4.531-5.156a7.38 7.38 0 0 0 -2.312-5.344 2.642 2.642 0 0 0 2.062-2.578c0-.5-.047-.89-.266-1.703zm-5.375 4.375c2.25 0 3.704 2.281 3.704 4.719 0 1.937-.704 3.078-2.407 3.078-1.656 0-2.375-1.11-2.765-3.781-.36-2.64-.469-3.172-.86-4.016zm0 0"/></symbol><symbol id="D" overflow="visible"><path d="m-7.14-15.39c-2.282 0-3.72.187-4.891.624-2.578 1.032-4.14 3.422-4.14 6.36 0 4.39 3.233 7.203 8.405 7.203 5.157 0 8.22-2.734 8.22-7.14 0-3.595-2.048-6.095-5.22-6.72v2.516c2.063.703 2.907 2.11 2.907 4.11 0 2.624-1.688 4.562-5.282 4.624zm-2.22 2.671s.126 0 .172.031v8.813c-2.78-.203-4.671-1.969-4.671-4.5 0-2.453 2.046-4.344 4.5-4.344zm0 0"/></symbol><clipPath id="E"><path d="m65.89 650h640.954v1h-640.954zm0 0"/></clipPath><clipPath id="F"><path d="m65.89 410h640.954v2h-640.954zm0 0"/></clipPath><clipPath id="G"><path d="m65.89 171h640.954v1h-640.954zm0 0"/></clipPath><clipPath id="H"><path d="m172 5.48h2v802.52h-2zm0 0"/></clipPath><clipPath id="I"><path d="m322 5.48h1v802.52h-1zm0 0"/></clipPath><clipPath id="J"><path d="m471 5.48h1v802.52h-1zm0 0"/></clipPath><clipPath id="K"><path d="m620 5.48h1v802.52h-1zm0 0"/></clipPath><clipPath id="L"><path d="m65.89 769h640.954v2h-640.954zm0 0"/></clipPath><clipPath id="M"><path d="m65.89 530h640.954v2h-640.954zm0 0"/></clipPath><clipPath id="N"><path d="m65.89 290h640.954v2h-640.954zm0 0"/></clipPath><clipPath id="O"><path d="m65.89 51h640.954v2h-640.954zm0 0"/></clipPath><clipPath id="P"><path d="m98 5.48h2v802.52h-2zm0 0"/></clipPath><clipPath id="Q"><path d="m247 5.48h2v802.52h-2zm0 0"/></clipPath><clipPath id="R"><path d="m396 5.48h2v802.52h-2zm0 0"/></clipPath><clipPath id="S"><path d="m545 5.48h2v802.52h-2zm0 0"/></clipPath><clipPath id="T"><path d="m694 5.48h2v802.52h-2zm0 0"/></clipPath><path d="m0 0h864v864h-864z" fill="#fff"/><g clip-path="url(#E)"><path d="m65.89 650.523h639.954" fill="none" stroke="#ebebeb" stroke-linejoin="round" stroke-miterlimit="10" stroke-width=".533"/></g><g clip-path="url(#F)"><path d="m65.89 411.074h639.954" fill="none" stroke="#ebebeb" stroke-linejoin="round" stroke-miterlimit="10" stroke-width=".533"/></g><g clip-path="url(#G)"><path d="m65.89 171.621h639.954" fill="none" stroke="#ebebeb" stroke-linejoin="round" stroke-miterlimit="10" stroke-width=".533"/></g><g clip-path="url(#H)"><path d="m173.188 807.11v-801.63" fill="none" stroke="#ebebeb" stroke-linejoin="round" stroke-miterlimit="10" stroke-width=".533"/></g><g clip-path="url(#I)"><path d="m322.36 807.11v-801.63" fill="none" stroke="#ebebeb" stroke-linejoin="round" stroke-miterlimit="10" stroke-width=".533"/></g><g clip-path="url(#J)"><path d="m471.531 807.11v-801.63" fill="none" stroke="#ebebeb" stroke-linejoin="round" stroke-miterlimit="10" stroke-width=".533"/></g><g clip-path="url(#K)"><path d="m620.7 807.11v-801.63" fill="none" stroke="#ebebeb" stroke-linejoin="round" stroke-miterlimit="10" stroke-width=".533"/></g><g clip-path="url(#L)"><path d="m65.89 770.25h639.954" fill="none" stroke="#ebebeb" stroke-linejoin="round" stroke-miterlimit="10" stroke-width="1.067"/></g><g clip-path="url(#M)"><path d="m65.89 530.8h639.954" fill="none" stroke="#ebebeb" stroke-linejoin="round" stroke-miterlimit="10" stroke-width="1.067"/></g><g clip-path="url(#N)"><path d="m65.89 291.348h639.954" fill="none" stroke="#ebebeb" stroke-linejoin="round" stroke-miterlimit="10" stroke-width="1.067"/></g><g clip-path="url(#O)"><path d="m65.89 51.895h639.954" fill="none" stroke="#ebebeb" stroke-linejoin="round" stroke-miterlimit="10" stroke-width="1.067"/></g><g clip-path="url(#P)"><path d="m98.656 807.11v-801.63" fill="none" stroke="#ebebeb" stroke-linejoin="round" stroke-miterlimit="10" stroke-width="1.067"/></g><g clip-path="url(#Q)"><path d="m247.723 807.11v-801.63" fill="none" stroke="#ebebeb" stroke-linejoin="round" stroke-miterlimit="10" stroke-width="1.067"/></g><g clip-path="url(#R)"><path d="m396.996 807.11v-801.63" fill="none" stroke="#ebebeb" stroke-linejoin="round" stroke-miterlimit="10" stroke-width="1.067"/></g><g clip-path="url(#S)"><path d="m546.063 807.11v-801.63" fill="none" stroke="#ebebeb" stroke-linejoin="round" stroke-miterlimit="10" stroke-width="1.067"/></g><g clip-path="url(#T)"><path d="m695.336 807.11v-801.63" fill="none" stroke="#ebebeb" stroke-linejoin="round" stroke-miterlimit="10" stroke-width="1.067"/></g><g fill="none" stroke-linejoin="round"><path d="m94.98 764.305 4.286-10.09 5.718-10.617 5.72-10.153 8.577-9.324 4.285-9.422 8.985 15.645 3.066 30.851 6.328-8.558 6.332-7.438 6.125-8.98 6.332-9.25 6.125-8.266 6.942 51.969 5.922-8.942 5.515-9.535 6.328-9.285 6.332-9.508 6.125-9.27 6.942-8.89 5.515-9.207 6.536-8.996 6.328-8.7 6.332-8.788 5.719 1.496 6.738-8.879 5.922-9.453 6.738-9.469 5.719-9.582 5.922-9.594 6.328-9.672 6.332-9.527 6.125-9.36 6.941-9.347 5.516-9.543 6.328-9.562 6.535-9.141 6.332-9.117 6.535-9.383 5.715-9.48 5.922 151.96 5.922-9.3 6.738-8.766 7.149-8.535 4.902-9.008 6.941-8.016 5.72-8.402 6.124 21.192 6.332-9.043 7.555-8.555 5.512-9.383 5.515-9.39 5.922-9.231 6.125-9.074 6.941-8.157 6.743-8.789 7.351-9.285 5.715 61.934 11.23-17.516 5.72-8.43 7.148-7.69 5.718-9.024 5.715 21.332 7.149-15.848 5.718-5.184 5.715 61.18 12.867-18.484 7.145-9.258 5.719-9.395 5.718-9.539 7.149-9.07 5.715-9.14 5.719-9.493 7.148-9.218 5.715-9.473 5.719-9.227 7.148-9.281 7.148-9.086 4.286 70.867 7.148-7.656 12.863-25.332 5.72 2.469 7.148 41.543 5.714-9.36 5.72-9.027 5.718.836 5.922-8.957 6.941-19.05 6.332-8.868 6.738-8.902 6.942-8.977 4.289.922" stroke="#d7191c" stroke-miterlimit="1" stroke-width="6.402"/><path d="m94.98 759.156 4.286-10.886 5.718-11.2 5.72-10.265 8.577-9.88 4.285-9.835 8.985-6.52 3.066-8.61 6.328-6.882 6.332-7.187 6.125-8.082 6.332 51.046 6.125-8.453 6.942-8.476 5.922-8.79 5.515-9.19 6.328-8.571 6.332-8.852 6.125-8.304 6.942 50.824 5.515-9.473 6.536-9.402 6.328-9.332 6.332-9.414 5.719-9.16 6.738-8.88 5.922-9.163 6.738-8.864 5.719-8.988 5.922-8.918 6.328-8.937 6.332.465 6.125-9.579 6.941-9.574 5.516-9.672 6.328-9.695 6.535-9.45 6.332-9.444 6.535-9.614 5.715-9.668 5.922-8.62 5.922-9.763 6.738-9.507 7.149-9.532 4.902-9.554 6.941-9.024 5.72-9.34 6.124-9.12 6.332-9.13 7.555 141.387 5.512.817 5.515-9.125 5.922-8.875 6.125-8.43 6.941-8.168 6.743-8.07 7.351 20.52 5.715-8.704 11.23-18.598 5.72-9.086 7.148-8.289 5.718-9.37 5.715-9.028 7.149-9.223 5.718-8.773 5.715-9.238 12.867 52.242 7.145-8.64 5.719-8.93 5.718-9.434 7.149-8.262 5.715-8.242 5.719-8.942 7.148 13.465 5.715-6.797 5.719 64.04 7.148-9.5 7.148-9.477 4.286-9.465 7.148-9.348 12.863-18.851 5.72-9.352 7.148-9.02 5.714-9.636 5.72-9.36 5.718-9.39 5.922-9.027 6.941-9.414 6.332-8.98 6.738-9.044 6.942 62.39 4.289 1.493" stroke="#fdae61" stroke-miterlimit="1" stroke-width="6.402"/><path d="m94.98 751.953 4.286-10.121 5.718-10.367 5.72-9.938 8.577-9.851 4.285-9.95 8.985-19.242 3.066.27 6.328-9.121 6.332-8.973 6.125-8.992 6.332-8.93 6.125-8.406 6.942-7.383 5.922-8.613 5.515-8.457 6.328-6.684 6.332-7.554 6.125 51.168 6.942-9.461 5.515-9.66 6.536-9.446 6.328-9.492 6.332-9.594 5.719-9.48 6.738-9.117 5.922-9.387 6.738-8.695 5.719-9.07 5.922-9.376 6.328-9.367 6.332-8.715 6.125 50.801 6.941-9.543 5.516-9.625 6.328-9.582 6.535-9.383 6.332-9.156 6.535-9.438 5.715-9.32 5.922-5.605 5.922-9.578 6.738 1.402 7.149-9.914 4.902-9.735 6.941-9.492 5.72-9.844 6.124-9.703 6.332-9.824 7.555-9.64 5.512-9.875 5.515-9.829 5.922-9.785 6.125-9.699 6.941-9.629 6.743-9.61 7.351-10.003 5.715-9.367 11.23-19.239 5.72-9.523 7.148-9.027 5.718-9.657 5.715-9.527 7.149-9.46 5.718-8.923 5.715-9.828 12.867 141.527 7.145-8.332 5.719-8.93 5.718-9.89 7.149-8.184 5.715-8.14 5.719-7.852 7.148-8.777 5.715 20.082 5.719-9.137 7.148-9.48 7.148-9.418 4.286-9.344 7.148-9.074 12.863-18.832 5.72-9.117 7.148-8.29 5.714-9.726 5.72-9.371 5.718-8.945 5.922-9.122 6.941 60.543 6.332-8.71 6.738-9.56 6.942-8.35 4.289-9.434" stroke="#abdda4" stroke-miterlimit="1" stroke-width="6.402"/><path d="m94.98 750.512 4.286-9.965 11.437-20.074 8.578-9.848 4.285-9.973 8.985-19.789 3.066.016 6.328-9.82 6.332-9.727 6.125-9.777 6.332-9.871 6.125-9.688 6.942-9.281 5.922-9.54 5.515-9.51 6.328-9.31 6.332-9.332 6.125-9.066 6.942-8.102 5.515-9.425 6.536-7.676 6.328-10.883 6.332-8.36 5.719-9.156 6.738-7.882 5.922-9.614 6.738-6.484 5.719 52.379 5.922-69.84 6.328 50.078 6.332-9.535 6.125-9.898 6.941-9.614 5.516-9.586 6.328-9.515 6.535-9.692 6.332-8.867 6.535-9.676 5.715-9.402 5.922-8.312 5.922-10.563 6.738-9.273 7.149-9.551 4.902-8.906 6.941 56.539 5.72-9.602 6.124-8.644 6.332-9.61 7.555-18.515h5.512l5.515-9.336 5.922-9.223 6.125-9.07 6.941.132 6.743-9.886 7.351-9.98 5.715-9.934 11.23-19.809 5.72-9.836 7.148-9.758 5.718-9.937 5.715-9.918 7.149-9.91 5.718-9.688 5.715-9.953 12.867-19.684 7.145-9.55 5.719-9.825 5.718-9.976 7.149-9.73 5.715-9.665 5.719-9.312 7.148-9.848 5.715-9.976 5.719-9.352 7.148-9.566 7.148-9.743 4.286-9.421 7.148-9.274 12.863-19.031 5.72-9.402 7.148 142.175 5.714-159.636 5.72 149.66 5.718-8.871 5.922-170.719 6.941 152.152 6.332-8.195 6.738-9.98 6.942-17.579h4.289" stroke="#2b83ba" stroke-miterlimit="1" stroke-width="6.402"/></g><g fill="#4d4d4d"><use x="46.957" xlink:href="#a" y="778.802"/><use x="33.957" xlink:href="#b" y="539.353"/><use x="47.301" xlink:href="#c" y="539.353"/><use x="33.957" xlink:href="#c" y="299.899"/><use x="47.301" xlink:href="#d" y="299.899"/><use x="33.957" xlink:href="#e" y="60.446"/><use x="47.301" xlink:href="#b" y="60.446"/><use x="71.656" xlink:href="#b" y="829.595"/><use x="85" xlink:href="#a" y="829.595"/><use x="98.344" xlink:href="#f" y="829.595"/><use x="111.688" xlink:href="#a" y="829.595"/><use x="220.723" xlink:href="#b" y="829.595"/><use x="234.066" xlink:href="#a" y="829.595"/><use x="247.41" xlink:href="#f" y="829.595"/><use x="260.754" xlink:href="#b" y="829.595"/><use x="369.996" xlink:href="#b" y="829.595"/><use x="383.34" xlink:href="#a" y="829.595"/><use x="396.684" xlink:href="#f" y="829.595"/><use x="410.027" xlink:href="#c" y="829.595"/><use x="519.063" xlink:href="#b" y="829.595"/><use x="532.406" xlink:href="#a" y="829.595"/><use x="545.75" xlink:href="#f" y="829.595"/><use x="559.094" xlink:href="#g" y="829.595"/><use x="668.336" xlink:href="#b" y="829.595"/><use x="681.68" xlink:href="#a" y="829.595"/><use x="695.023" xlink:href="#f" y="829.595"/><use x="708.367" xlink:href="#d" y="829.595"/></g><use x="356.867" xlink:href="#j" y="856.96"/><use x="373.547" xlink:href="#k" y="856.96"/><use x="390.227" xlink:href="#l" y="856.96"/><use x="398.116" xlink:href="#m" y="856.96"/><use x="26.921" xlink:href="#t" y="530.293"/><use x="26.921" xlink:href="#u" y="505.303"/><use x="26.921" xlink:href="#v" y="488.623"/><use x="26.921" xlink:href="#w" y="471.943"/><use x="26.921" xlink:href="#x" y="463.754"/><use x="26.921" xlink:href="#y" y="447.074"/><use x="26.921" xlink:href="#u" y="423.734"/><use x="26.921" xlink:href="#z" y="407.055"/><use x="26.921" xlink:href="#w" y="390.375"/><use x="26.921" xlink:href="#u" y="373.695"/><use x="26.921" xlink:href="#A" y="357.016"/><use x="26.921" xlink:href="#B" y="340.336"/><use x="26.921" xlink:href="#C" y="323.656"/><use x="26.921" xlink:href="#w" y="306.977"/><use x="26.921" xlink:href="#D" y="299.087"/><use x="722.852" xlink:href="#n" y="378.573"/><use x="739.531" xlink:href="#m" y="378.573"/><use x="756.211" xlink:href="#o" y="378.573"/><use x="766.051" xlink:href="#p" y="378.573"/><use x="781.051" xlink:href="#m" y="378.573"/><use x="797.73" xlink:href="#q" y="378.573"/><use x="814.41" xlink:href="#l" y="378.573"/><use x="822.75" xlink:href="#r" y="378.573"/><use x="829.41" xlink:href="#s" y="378.573"/><use x="836.07" xlink:href="#m" y="378.573"/><path d="m724.578 392.453h13.824" fill="none" stroke="#d7191c" stroke-linejoin="round" stroke-miterlimit="10" stroke-width="6.402"/><path d="m724.578 410.453h13.824" fill="none" stroke="#fdae61" stroke-linejoin="round" stroke-miterlimit="10" stroke-width="6.402"/><path d="m724.578 428.453h13.824" fill="none" stroke="#abdda4" stroke-linejoin="round" stroke-miterlimit="10" stroke-width="6.402"/><path d="m724.578 446.453h13.824" fill="none" stroke="#2b83ba" stroke-linejoin="round" stroke-miterlimit="10" stroke-width="6.402"/><use x="742.293" xlink:href="#h" y="401.005"/><use x="755.637" xlink:href="#a" y="401.005"/><use x="742.293" xlink:href="#e" y="419.005"/><use x="755.637" xlink:href="#h" y="419.005"/><use x="742.293" xlink:href="#i" y="437.005"/><use x="755.637" xlink:href="#h" y="437.005"/><use x="742.293" xlink:href="#i" y="455.005"/><use x="755.637" xlink:href="#i" y="455.005"/></svg>