<svg height="1152" viewBox="0 0 864 864" width="1152" xmlns="http://www.w3.org/2000/svg" xmlns:xlink="http://www.w3.org/1999/xlink"><symbol id="a" overflow="visible"><path d="m12.172-8.188c0-5.906-1.875-8.828-5.578-8.828-3.672 0-5.563 2.97-5.563 8.688 0 5.734 1.922 8.687 5.563 8.687 3.61 0 5.578-2.953 5.578-8.546zm-2.156-.187c0 4.828-1.11 6.984-3.47 6.984-2.234 0-3.359-2.25-3.359-6.906s1.126-6.844 3.407-6.844 3.422 2.204 3.422 6.766zm0 0"/></symbol><symbol id="b" overflow="visible"><path d="m12.266-12.031c0-2.875-2.235-4.985-5.454-4.985-3.468 0-5.5 1.782-5.609 5.907h2.11c.171-2.86 1.343-4.063 3.437-4.063 1.906 0 3.36 1.375 3.36 3.203 0 1.344-.797 2.485-2.313 3.36l-2.203 1.234c-3.547 2.016-4.578 3.625-4.782 7.375h11.329v-2.094h-8.954c.22-1.39.985-2.281 3.079-3.5l2.39-1.297c2.39-1.265 3.61-3.046 3.61-5.14zm0 0"/></symbol><symbol id="c" overflow="visible"><path d="m12.484-4.078v-1.89h-2.53v-11.048h-1.549l-7.733 10.703v2.235h7.172v4.078h2.11v-4.078zm-4.64-1.89h-5.328l5.328-7.454zm0 0"/></symbol><symbol id="d" overflow="visible"><path d="m12.313-5.281c0-3.172-2.157-5.297-5.204-5.297-1.687 0-3 .64-3.921 1.89.03-4.156 1.374-6.453 3.796-6.453 1.485 0 2.516.938 2.86 2.563h2.11c-.407-2.781-2.235-4.438-4.829-4.438-3.953 0-6.094 3.328-6.094 9.266 0 5.297 1.829 8.11 5.719 8.11 3.234 0 5.563-2.297 5.563-5.641zm-2.157.172c0 2.14-1.437 3.593-3.39 3.593-1.97 0-3.454-1.53-3.454-3.718 0-2.11 1.438-3.485 3.532-3.485 2.031 0 3.312 1.328 3.312 3.61zm0 0"/></symbol><symbol id="e" overflow="visible"><path d="m12.313-5.64c0-3.36-2.235-5.563-5.5-5.563-1.204 0-2.157.312-3.141 1.031l.672-4.39h7.078v-2.094h-8.782l-1.265 8.906h1.938c.984-1.172 1.796-1.594 3.124-1.594 2.282 0 3.72 1.469 3.72 3.985 0 2.453-1.423 3.843-3.72 3.843-1.859 0-2.984-.937-3.484-2.859h-2.11c.689 3.39 2.611 4.734 5.642 4.734 3.422 0 5.829-2.406 5.829-6zm0 0"/></symbol><symbol id="f" overflow="visible"><path d="m12.484-14.875v-1.781h-11.374v2.093h9.188a36.21 36.21 0 0 0 -6.986 14.563h2.25a31.26 31.26 0 0 1 6.922-14.875zm0 0"/></symbol><symbol id="g" overflow="visible"><path d="m12.219-8.906c0-5.328-1.844-8.11-5.735-8.11-3.25 0-5.578 2.297-5.578 5.641 0 3.172 2.172 5.297 5.235 5.297 1.609 0 2.78-.563 3.89-1.89-.015 4.155-1.375 6.452-3.797 6.452-1.484 0-2.515-.937-2.843-2.562h-2.125c.421 2.781 2.234 4.437 4.828 4.437 3.984 0 6.125-3.39 6.125-9.265zm-2.313-2.516c0 2.078-1.453 3.485-3.515 3.485-2.047 0-3.313-1.329-3.313-3.61 0-2.156 1.438-3.625 3.375-3.625 1.969 0 3.453 1.547 3.453 3.75zm0 0"/></symbol><symbol id="h" overflow="visible"><path d="m8.328 0v-17.016h-1.39c-.75 2.61-1.22 2.97-4.485 3.391v1.5h3.767v12.125zm0 0"/></symbol><symbol id="i" overflow="visible"><path d="m15.688-7.703c0-5.281-2.579-8.469-6.75-8.469-2.126 0-3.844.969-5 2.828v-2.375h-2.283v22.266h2.485v-8.438c1.313 1.625 2.797 2.344 4.829 2.344 4.047 0 6.719-3.156 6.719-8.156zm-2.61-.063c0 3.563-1.828 5.875-4.562 5.875-2.641 0-4.375-2.156-4.375-5.843 0-3.704 1.734-6.094 4.375-6.094 2.765 0 4.562 2.312 4.562 6.062zm0 0"/></symbol><symbol id="j" overflow="visible"><path d="m15.39-7.14c0-2.282-.187-3.72-.624-4.891-1.032-2.578-3.422-4.14-6.36-4.14-4.39 0-7.203 3.233-7.203 8.405 0 5.157 2.734 8.22 7.14 8.22 3.595 0 6.095-2.048 6.72-5.22h-2.516c-.703 2.063-2.11 2.907-4.11 2.907-2.624 0-4.562-1.688-4.624-5.282zm-2.67-2.22s0 .126-.031.172h-8.815c.203-2.78 1.969-4.671 4.5-4.671 2.453 0 4.344 2.046 4.344 4.5zm0 0"/></symbol><symbol id="k" overflow="visible"><path d="m9.625-13.531v-2.547c-.422-.063-.625-.094-.953-.094-1.625 0-2.86.969-4.297 3.297v-2.844h-2.281v15.719h2.5v-8.156c0-3.547 1.172-5.313 5.031-5.375zm0 0"/></symbol><symbol id="l" overflow="visible"><path d="m14.313-5.406h-2.516c-.422 2.531-1.719 3.547-3.844 3.547-2.766 0-4.406-2.125-4.406-5.844 0-3.938 1.61-6.156 4.344-6.156 2.093 0 3.421 1.234 3.718 3.421h2.516c-.297-3.843-2.688-5.734-6.203-5.734-4.234 0-6.984 3.235-6.984 8.469 0 5.062 2.686 8.156 6.952 8.156 3.75 0 6.125-2.25 6.421-5.86zm0 0"/></symbol><symbol id="m" overflow="visible"><path d="m14.61 0v-11.875c0-2.61-1.954-4.297-4.985-4.297-2.328 0-3.828.906-5.219 3.094v-2.64h-2.312v15.718h2.5v-8.672c0-3.203 1.734-5.312 4.281-5.312 1.984 0 3.25 1.203 3.25 3.093v10.891zm0 0"/></symbol><symbol id="n" overflow="visible"><path d="m7.625 0v-2.094c-.328.078-.719.11-1.203.11-1.078 0-1.375-.297-1.375-1.407v-10.296h2.578v-2.032h-2.578v-4.328h-2.5v4.328h-2.125v2.031h2.125v11.408c0 1.593 1.078 2.483 3.031 2.483.61 0 1.203-.047 2.047-.203zm0 0"/></symbol><symbol id="o" overflow="visible"><path d="m4.594 0v-15.719h-2.5v15.719zm.328-18.094v-3.11h-3.125v3.11zm0 0"/></symbol><symbol id="p" overflow="visible"><path d="m4.531 0v-21.875h-2.484v21.875zm0 0"/></symbol><symbol id="q" overflow="visible"><path d="m14.844 0v-21.875h-2.485v8.14c-1.046-1.593-2.734-2.437-4.828-2.437-4.078 0-6.75 3.156-6.75 8.156 0 5.313 2.61 8.47 6.844 8.47 2.156 0 3.656-.813 5-2.767v2.313zm-2.485-7.797c0 3.625-1.734 5.906-4.375 5.906-2.765 0-4.593-2.312-4.593-5.968 0-3.657 1.828-5.97 4.562-5.97 2.703 0 4.406 2.392 4.406 6.032zm0 0"/></symbol><symbol id="r" overflow="visible"><path d="m16.047-.063v-1.89c-.266.062-.39.062-.531.062-.875 0-1.36-.453-1.36-1.234v-8.75c0-2.797-2.031-4.297-5.906-4.297-3.813 0-6.156 1.469-6.297 5.11h2.517c.218-1.922 1.343-2.797 3.687-2.797 2.25 0 3.516.843 3.516 2.343v.657c0 1.046-.625 1.5-2.61 1.734-3.546.453-4.078.578-5.046.969-1.829.75-2.75 2.156-2.75 4.078 0 2.844 1.968 4.531 5.156 4.531a7.38 7.38 0 0 0 5.344-2.312 2.642 2.642 0 0 0 2.577 2.062c.5 0 .89-.047 1.703-.266zm-4.375-5.375c0 2.25-2.281 3.704-4.719 3.704-1.937 0-3.078-.704-3.078-2.407 0-1.656 1.11-2.375 3.781-2.765 2.64-.36 3.172-.469 4.016-.86zm0 0"/></symbol><symbol id="s" overflow="visible"><path d="m0-22.797h-11.797c-2.812 0-4.375 1.563-4.375 4.5 0 2.094.625 3.36 2.406 4.828-1.687.922-2.406 2.188-2.406 4.235 0 2.093.781 3.468 2.672 4.828h-2.219v2.281h15.719v-2.5h-9.875c-2.281 0-4.11-1.64-4.11-3.688 0-1.859 1.141-2.906 3.157-2.906h10.828v-2.484h-9.875c-2.281 0-4.11-1.688-4.11-3.735 0-1.828 1.172-2.875 3.157-2.875h10.828zm0 0"/></symbol><symbol id="t" overflow="visible"><path d="m-7.734-15.297c-5.438 0-8.438 2.61-8.438 7.14 0 4.407 3.031 7.079 8.313 7.079 5.28 0 8.312-2.64 8.312-7.11 0-4.406-3.031-7.109-8.187-7.109zm-.032 2.61c3.688 0 5.907 1.734 5.907 4.5 0 2.78-2.188 4.5-6 4.5-3.782 0-6-1.72-6-4.5 0-2.829 2.187-4.5 6.093-4.5zm0 0"/></symbol><symbol id="u" overflow="visible"><path d="m0-14.61h-11.875c-2.61 0-4.297 1.954-4.297 4.985 0 2.328.906 3.828 3.094 5.219h-2.64v2.312h15.718v-2.5h-8.672c-3.203 0-5.312-1.734-5.312-4.281 0-1.984 1.203-3.25 3.093-3.25h10.891zm0 0"/></symbol><symbol id="v" overflow="visible"><path d="m0-7.625h-2.094c.078.328.11.719.11 1.203 0 1.078-.297 1.375-1.407 1.375h-10.296v-2.578h-2.032v2.578h-4.328v2.5h4.328v2.125h2.031v-2.125h11.408c1.594 0 2.484-1.078 2.484-3.031 0-.61-.047-1.203-.203-2.047zm0 0"/></symbol><symbol id="w" overflow="visible"><path d="m0-14.578h-11.875c-2.64 0-4.297 1.89-4.297 4.953 0 2.219.688 3.563 2.61 5.031h-8.313v2.5h21.875v-2.5h-8.672c-3.203 0-5.312-1.672-5.312-4.25 0-1.781 1.03-3.25 3.093-3.25h10.891zm0 0"/></symbol><symbol id="x" overflow="visible"><path d="m-4.406-13.766c-2.344 0-3.516 1.313-4.266 4.438l-.562 2.39c-.485 2.047-1.141 2.922-2.25 2.922-1.454 0-2.375-1.296-2.375-3.328 0-2.015.875-3.093 2.515-3.156v-2.64c-3.094.03-4.828 2.078-4.828 5.703 0 3.656 1.89 6.03 4.797 6.03 2.469 0 3.64-1.265 4.531-4.984l.578-2.343c.422-1.735.922-2.422 2.063-2.422 1.469 0 2.344 1.469 2.344 3.656 0 2.25-.547 3.516-2.938 3.844v2.64c3.625-.125 5.25-2.171 5.25-6.28 0-3.954-1.828-6.47-4.86-6.47zm0 0"/></symbol><symbol id="y" overflow="visible"><path d="m0-14.453h-15.719v2.484h8.672c3.203 0 5.313 1.672 5.313 4.281 0 1.985-1.204 3.25-3.094 3.25h-10.89v2.485h11.874c2.61 0 4.297-1.953 4.297-5 0-2.313-.812-3.781-2.89-5.25h2.437zm0 0"/></symbol><symbol id="z" overflow="visible"><path d="m-13.688-7.734h-2.03v2.609h-2.47c-1.046 0-1.578-.61-1.578-1.75 0-.203 0-.297.032-.86h-2.078c-.125.563-.141.891-.141 1.407 0 2.312 1.312 3.687 3.562 3.687h2.672v2.094h2.031v-2.093h13.688v-2.484h-13.688zm0 0"/></symbol><symbol id="A" overflow="visible"><path d="m0-14.844h-21.875v2.485h8.14c-1.593 1.046-2.437 2.734-2.437 4.828 0 4.078 3.156 6.75 8.156 6.75 5.313 0 8.47-2.61 8.47-6.844 0-2.156-.813-3.656-2.767-5h2.313zm-7.797 2.485c3.625 0 5.906 1.734 5.906 4.375 0 2.765-2.312 4.593-5.968 4.593-3.657 0-5.97-1.828-5.97-4.562 0-2.703 2.392-4.406 6.032-4.406zm0 0"/></symbol><symbol id="B" overflow="visible"><path d="m-.063-16.047h-1.89c.062.266.062.39.062.531 0 .875-.453 1.36-1.234 1.36h-8.75c-2.797 0-4.297 2.031-4.297 5.906 0 3.813 1.469 6.156 5.11 6.297v-2.517c-1.922-.218-2.797-1.343-2.797-3.687 0-2.25.843-3.516 2.343-3.516h.657c1.046 0 1.5.625 1.734 2.61.453 3.546.578 4.078.969 5.046.75 1.829 2.156 2.75 4.078 2.75 2.844 0 4.531-1.968 4.531-5.156a7.38 7.38 0 0 0 -2.312-5.344 2.642 2.642 0 0 0 2.062-2.578c0-.5-.047-.89-.266-1.703zm-5.375 4.375c2.25 0 3.704 2.281 3.704 4.719 0 1.937-.704 3.078-2.407 3.078-1.656 0-2.375-1.11-2.765-3.781-.36-2.64-.469-3.172-.86-4.016zm0 0"/></symbol><symbol id="C" overflow="visible"><path d="m-7.14-15.39c-2.282 0-3.72.187-4.891.624-2.578 1.032-4.14 3.422-4.14 6.36 0 4.39 3.233 7.203 8.405 7.203 5.157 0 8.22-2.734 8.22-7.14 0-3.595-2.048-6.095-5.22-6.72v2.516c2.063.703 2.907 2.11 2.907 4.11 0 2.624-1.688 4.562-5.282 4.624zm-2.22 2.671s.126 0 .172.031v8.813c-2.78-.203-4.671-1.969-4.671-4.5 0-2.453 2.046-4.344 4.5-4.344zm0 0"/></symbol><clipPath id="D"><path d="m65.89 647h697.11v1h-697.11zm0 0"/></clipPath><clipPath id="E"><path d="m65.89 405h697.11v1h-697.11zm0 0"/></clipPath><clipPath id="F"><path d="m65.89 162h697.11v2h-697.11zm0 0"/></clipPath><clipPath id="G"><path d="m177 5.48h1v800.52h-1zm0 0"/></clipPath><clipPath id="H"><path d="m337 5.48h1v800.52h-1zm0 0"/></clipPath><clipPath id="I"><path d="m497 5.48h1v800.52h-1zm0 0"/></clipPath><clipPath id="J"><path d="m653 5.48h2v800.52h-2zm0 0"/></clipPath><clipPath id="K"><path d="m65.89 768h697.11v2h-697.11zm0 0"/></clipPath><clipPath id="L"><path d="m65.89 525h697.11v2h-697.11zm0 0"/></clipPath><clipPath id="M"><path d="m65.89 283h697.11v2h-697.11zm0 0"/></clipPath><clipPath id="N"><path d="m65.89 41h697.11v2h-697.11zm0 0"/></clipPath><clipPath id="O"><path d="m97 5.48h2v800.52h-2zm0 0"/></clipPath><clipPath id="P"><path d="m256 5.48h2v800.52h-2zm0 0"/></clipPath><clipPath id="Q"><path d="m416 5.48h2v800.52h-2zm0 0"/></clipPath><clipPath id="R"><path d="m576 5.48h2v800.52h-2zm0 0"/></clipPath><clipPath id="S"><path d="m730 5.48h2v800.52h-2zm0 0"/></clipPath><path d="m0 0h864v864h-864z" fill="#fff"/><g clip-path="url(#D)"><path d="m65.89 647.605h696.512" fill="none" stroke="#ebebeb" stroke-linejoin="round" stroke-miterlimit="10" stroke-width=".533"/></g><g clip-path="url(#E)"><path d="m65.89 405.293h696.512" fill="none" stroke="#ebebeb" stroke-linejoin="round" stroke-miterlimit="10" stroke-width=".533"/></g><g clip-path="url(#F)"><path d="m65.89 162.98h696.512" fill="none" stroke="#ebebeb" stroke-linejoin="round" stroke-miterlimit="10" stroke-width=".533"/></g><g clip-path="url(#G)"><path d="m177.5 805.11v-799.63" fill="none" stroke="#ebebeb" stroke-linejoin="round" stroke-miterlimit="10" stroke-width=".533"/></g><g clip-path="url(#H)"><path d="m337.395 805.11v-799.63" fill="none" stroke="#ebebeb" stroke-linejoin="round" stroke-miterlimit="10" stroke-width=".533"/></g><g clip-path="url(#I)"><path d="m497.293 805.11v-799.63" fill="none" stroke="#ebebeb" stroke-linejoin="round" stroke-miterlimit="10" stroke-width=".533"/></g><g clip-path="url(#J)"><path d="m653.992 805.11v-799.63" fill="none" stroke="#ebebeb" stroke-linejoin="round" stroke-miterlimit="10" stroke-width=".533"/></g><g clip-path="url(#K)"><path d="m65.89 768.762h696.512" fill="none" stroke="#ebebeb" stroke-linejoin="round" stroke-miterlimit="10" stroke-width="1.067"/></g><g clip-path="url(#L)"><path d="m65.89 526.45h696.512" fill="none" stroke="#ebebeb" stroke-linejoin="round" stroke-miterlimit="10" stroke-width="1.067"/></g><g clip-path="url(#M)"><path d="m65.89 284.137h696.512" fill="none" stroke="#ebebeb" stroke-linejoin="round" stroke-miterlimit="10" stroke-width="1.067"/></g><g clip-path="url(#N)"><path d="m65.89 41.828h696.512" fill="none" stroke="#ebebeb" stroke-linejoin="round" stroke-miterlimit="10" stroke-width="1.067"/></g><g clip-path="url(#O)"><path d="m97.55 805.11v-799.63" fill="none" stroke="#ebebeb" stroke-linejoin="round" stroke-miterlimit="10" stroke-width="1.067"/></g><g clip-path="url(#P)"><path d="m257.45 805.11v-799.63" fill="none" stroke="#ebebeb" stroke-linejoin="round" stroke-miterlimit="10" stroke-width="1.067"/></g><g clip-path="url(#Q)"><path d="m417.344 805.11v-799.63" fill="none" stroke="#ebebeb" stroke-linejoin="round" stroke-miterlimit="10" stroke-width="1.067"/></g><g clip-path="url(#R)"><path d="m577.242 805.11v-799.63" fill="none" stroke="#ebebeb" stroke-linejoin="round" stroke-miterlimit="10" stroke-width="1.067"/></g><g clip-path="url(#S)"><path d="m730.742 805.11v-799.63" fill="none" stroke="#ebebeb" stroke-linejoin="round" stroke-miterlimit="10" stroke-width="1.067"/></g><g fill="none" stroke-linejoin="round"><path d="m97.55 768.762h121.52l6.399-12.114 6.394-12.117h294.211l6.399-12.117h191.875l6.394-60.574" stroke="#ffc" stroke-miterlimit="1" stroke-width="6.402"/><path d="m97.55 744.531h6.395l6.399-36.347 6.394-60.579h351.774l6.394-24.23h185.485l6.394-84.809h51.168l6.395-84.808 6.394-12.117" stroke="#c2e699" stroke-miterlimit="1" stroke-width="6.402"/><path d="m97.55 768.762 6.395-24.23h44.774l6.394-36.348h89.543l6.395-96.922h223.855l6.399-60.578h102.332l6.398-193.852h127.918l6.395-36.348h6.394" stroke="#78c679" stroke-miterlimit="1" stroke-width="6.402"/><path d="m97.55 744.531h95.938l6.395-84.808h102.336l6.394-109.04h223.86l6.394-96.925h12.793l6.395-36.348h76.75l6.394-96.926h51.168l6.399-48.46h6.394l6.395-205.965h12.793l6.394-24.23" stroke="#238443" stroke-miterlimit="1" stroke-width="6.402"/></g><g fill="#4d4d4d"><use x="46.957" xlink:href="#a" y="777.313"/><use x="33.957" xlink:href="#b" y="535.001"/><use x="47.301" xlink:href="#a" y="535.001"/><use x="33.957" xlink:href="#c" y="292.688"/><use x="47.301" xlink:href="#a" y="292.688"/><use x="33.957" xlink:href="#d" y="50.38"/><use x="47.301" xlink:href="#a" y="50.38"/><use x="90.551" xlink:href="#a" y="827.595"/><use x="243.949" xlink:href="#b" y="827.595"/><use x="257.293" xlink:href="#e" y="827.595"/><use x="403.844" xlink:href="#e" y="827.595"/><use x="417.188" xlink:href="#a" y="827.595"/><use x="563.742" xlink:href="#f" y="827.595"/><use x="577.086" xlink:href="#e" y="827.595"/><use x="717.242" xlink:href="#g" y="827.595"/><use x="730.586" xlink:href="#g" y="827.595"/></g><use x="349.148" xlink:href="#i" y="854.96"/><use x="365.828" xlink:href="#j" y="854.96"/><use x="382.508" xlink:href="#k" y="854.96"/><use x="392.348" xlink:href="#l" y="854.96"/><use x="407.348" xlink:href="#j" y="854.96"/><use x="424.027" xlink:href="#m" y="854.96"/><use x="440.707" xlink:href="#n" y="854.96"/><use x="449.047" xlink:href="#o" y="854.96"/><use x="455.707" xlink:href="#p" y="854.96"/><use x="462.367" xlink:href="#j" y="854.96"/><use x="26.921" xlink:href="#s" y="529.293"/><use x="26.921" xlink:href="#t" y="504.303"/><use x="26.921" xlink:href="#u" y="487.623"/><use x="26.921" xlink:href="#v" y="470.943"/><use x="26.921" xlink:href="#w" y="462.754"/><use x="26.921" xlink:href="#x" y="446.074"/><use x="26.921" xlink:href="#t" y="422.734"/><use x="26.921" xlink:href="#y" y="406.055"/><use x="26.921" xlink:href="#v" y="389.375"/><use x="26.921" xlink:href="#t" y="372.695"/><use x="26.921" xlink:href="#z" y="356.016"/><use x="26.921" xlink:href="#A" y="339.336"/><use x="26.921" xlink:href="#B" y="322.656"/><use x="26.921" xlink:href="#v" y="305.977"/><use x="26.921" xlink:href="#C" y="298.087"/><use x="779.41" xlink:href="#q" y="377.573"/><use x="796.09" xlink:href="#r" y="377.573"/><use x="812.77" xlink:href="#n" y="377.573"/><use x="820.659" xlink:href="#j" y="377.573"/><path d="m781.14 391.453h13.825" fill="none" stroke="#ffc" stroke-linejoin="round" stroke-miterlimit="10" stroke-width="6.402"/><path d="m781.14 409.453h13.825" fill="none" stroke="#c2e699" stroke-linejoin="round" stroke-miterlimit="10" stroke-width="6.402"/><path d="m781.14 427.453h13.825" fill="none" stroke="#78c679" stroke-linejoin="round" stroke-miterlimit="10" stroke-width="6.402"/><path d="m781.14 445.453h13.825" fill="none" stroke="#238443" stroke-linejoin="round" stroke-miterlimit="10" stroke-width="6.402"/><use x="798.852" xlink:href="#b" y="400.005"/><use x="812.195" xlink:href="#a" y="400.005"/><use x="825.539" xlink:href="#h" y="400.005"/><use x="838.883" xlink:href="#a" y="400.005"/><use x="798.852" xlink:href="#b" y="418.005"/><use x="812.195" xlink:href="#a" y="418.005"/><use x="825.539" xlink:href="#h" y="418.005"/><use x="838.883" xlink:href="#b" y="418.005"/><use x="798.852" xlink:href="#b" y="436.005"/><use x="812.195" xlink:href="#a" y="436.005"/><use x="825.539" xlink:href="#h" y="436.005"/><use x="838.883" xlink:href="#c" y="436.005"/><use x="798.852" xlink:href="#b" y="454.005"/><use x="812.195" xlink:href="#a" y="454.005"/><use x="825.539" xlink:href="#h" y="454.005"/><use x="838.883" xlink:href="#d" y="454.005"/></svg>